<svg width="128" height="128" viewBox="0 0 128 128" fill="none" xmlns="http://www.w3.org/2000/svg">
  <circle cx="64" cy="64" r="60" fill="#FFDD67"/>
  <path d="M64 98C81.6731 98 96 88.8741 96 77.5C96 66.1259 81.6731 57 64 57C46.3269 57 32 66.1259 32 77.5C32 88.8741 46.3269 98 64 98Z" fill="#664E27"/>
  <path d="M64 91C76.1503 91 86 85.8513 86 79.5C86 73.1487 76.1503 68 64 68C51.8497 68 42 73.1487 42 79.5C42 85.8513 51.8497 91 64 91Z" fill="#FFFFFF"/>
  <circle cx="44.5" cy="42.5" r="7.5" fill="#664E27"/>
  <circle cx="83.5" cy="42.5" r="7.5" fill="#664E27"/>
</svg>