<svg width="128" height="128" viewBox="0 0 128 128" fill="none" xmlns="http://www.w3.org/2000/svg">
  <circle cx="64" cy="64" r="60" fill="#FFDD67"/>
  <path d="M64 98C81.6731 98 96 92.4036 96 85.5C96 78.5964 81.6731 73 64 73C46.3269 73 32 78.5964 32 85.5C32 92.4036 46.3269 98 64 98Z" fill="#664E27"/>
  <circle cx="44.5" cy="42.5" r="7.5" fill="#664E27"/>
  <circle cx="83.5" cy="42.5" r="7.5" fill="#664E27"/>
  <path d="M44 60C49.5228 60 54 58.2091 54 56C54 53.7909 49.5228 52 44 52C38.4772 52 34 53.7909 34 56C34 58.2091 38.4772 60 44 60Z" fill="#664E27"/>
  <path d="M84 60C89.5228 60 94 58.2091 94 56C94 53.7909 89.5228 52 84 52C78.4772 52 74 53.7909 74 56C74 58.2091 78.4772 60 84 60Z" fill="#664E27"/>
</svg>